# xmcd
#
# Track frame offsets:
#	150
#	26711
#	47646
#	67640
#	80277
#	103697
#	125670
#	147048
#	177693
#	206843
#
# Disc length: 3157 seconds
#
# Revision: 1
# Processed by: cddbd v1.5.2PL0 Copyright (c) Steve Scherf et al.
# Submitted via: audiograbber 1.83.01
#
DISCID=8a0c530a
DTITLE=Wil Gravatt Band - Pleezed Tameetcha
DYEAR=2001
DGENRE=Country
TTITLE0=Ring of Fire
TTITLE1=Luckenbach, TX
TTITLE2=Truck Drivin' Man
TTITLE3=Roly Poly
TTITLE4=Hand Jive
TTITLE5=6 Days on the Road
TTITLE6="T" for Texas
TTITLE7=Just My Imagination
TTITLE8=Workin Man Blues
TTITLE9=Let's Get it On
EXTD=
EXTT0=
EXTT1=
EXTT2=
EXTT3=
EXTT4=
EXTT5=
EXTT6=
EXTT7=
EXTT8=
EXTT9=
PLAYORDER=
